<?xml version="1.0" encoding="iso-8859-1"?>
<!-- Uploaded to: SVG Repo, www.svgrepo.com, Generator: SVG Repo Mixer Tools -->
<svg height="800px" width="800px" version="1.1" id="Layer_1" xmlns="http://www.w3.org/2000/svg" xmlns:xlink="http://www.w3.org/1999/xlink" 
	 viewBox="0 0 512 512" xml:space="preserve">
<polygon style="fill:#FF7731;" points="82.892,194.411 69.014,501.801 405.256,501.801 391.379,194.411 "/>
<polygon style="fill:#BDCED4;" points="383.061,10.199 318.698,10.199 91.208,10.199 24.626,10.199 88.747,64.703 82.892,194.411 
	391.379,194.411 "/>
<path d="M229.149,250.612c-3.983-3.983-10.441-3.983-14.425,0c-37.155,37.156-37.155,97.611,0,134.766
	c18.578,18.577,42.98,27.866,67.383,27.866s48.805-9.288,67.383-27.866c3.983-3.983,3.983-10.441,0-14.425L229.149,250.612z
	 M229.149,370.953c-26.757-26.756-28.998-68.885-6.723-98.217L260.2,310.51h-11.117c-5.633,0-10.199,4.566-10.199,10.199
	s4.566,10.199,10.199,10.199h20.113v20.113c0,5.633,4.566,10.199,10.199,10.199s10.199-4.566,10.199-10.199v-11.117l37.774,37.774
	C298.033,399.952,255.905,397.71,229.149,370.953z"/>
<path d="M58.826,501.341c-0.125,2.782,0.892,5.494,2.816,7.508c1.924,2.013,4.588,3.152,7.373,3.152h336.242
	c2.784,0,5.448-1.139,7.373-3.152c1.925-2.013,2.941-4.725,2.816-7.508l-6.383-141.371h3.407c46.927,0,85.104-38.178,85.104-85.104
	V152.242c0-27.652-22.496-50.148-50.148-50.148h-50.005L393.251,9.74C393.005,4.291,388.516,0,383.061,0H24.626
	c-4.276,0-8.097,2.667-9.573,6.68c-1.475,4.013-0.291,8.52,2.968,11.291l60.313,51.266L58.826,501.341z M52.373,20.398h320.94
	l7.395,163.813H93.562l5.375-119.049c0.143-3.151-1.181-6.189-3.583-8.232L52.373,20.398z M79.684,491.602L92.641,204.61H381.63
	l12.956,286.991H79.684z M398.341,122.491h49.084c16.404,0,29.75,13.346,29.75,29.75v122.623c0,35.679-29.027,64.706-64.706,64.706
	h-4.328L398.341,122.491z"/>
<path d="M216.223,175.426h7.139c5.633,0,10.199-4.566,10.199-10.199s-4.566-10.199-10.199-10.199h-7.139
	c-5.633,0-10.199,4.566-10.199,10.199S210.59,175.426,216.223,175.426z"/>
<path d="M115.251,175.426h67.315c5.633,0,10.199-4.566,10.199-10.199s-4.566-10.199-10.199-10.199h-67.315
	c-5.633,0-10.199,4.566-10.199,10.199S109.618,175.426,115.251,175.426z"/>
</svg>